<?xml version="1.0" standalone="no"?>
<!DOCTYPE svg PUBLIC "-//W3C//DTD SVG 20010904//EN"
 "http://www.w3.org/TR/2001/REC-SVG-20010904/DTD/svg10.dtd">
<svg version="1.0" xmlns="http://www.w3.org/2000/svg"
 width="512.000000pt" height="512.000000pt" viewBox="0 0 512.000000 512.000000"
 preserveAspectRatio="xMidYMid meet">

<g transform="translate(0.000000,512.000000) scale(0.100000,-0.100000)"
fill="#000000" stroke="none">
<path d="M821 4643 c-1 -150 1 -273 4 -273 18 0 145 72 145 83 0 6 -34 113
-74 237 l-74 225 -1 -272z"/>
<path d="M3720 4616 l0 -294 151 -81 151 -81 137 78 136 78 3 297 c1 163 0
297 -4 297 -3 0 -65 -34 -138 -75 -73 -41 -135 -75 -138 -75 -4 0 -69 34 -146
75 -77 41 -143 75 -146 75 -3 0 -6 -132 -6 -294z"/>
<path d="M3200 3834 l-1 -439 -360 -209 c-356 -206 -361 -209 -387 -194 -188
110 -762 438 -767 438 -3 0 -5 -239 -5 -531 l0 -531 -42 54 c-141 180 -340
328 -524 390 -89 29 -247 32 -309 5 -34 -15 -225 -135 -225 -142 0 -1 23 4 52
11 359 94 865 -322 1042 -858 62 -186 72 -385 27 -529 -25 -80 -85 -166 -140
-199 l-40 -25 -1 -537 0 -537 120 71 120 70 0 549 c0 319 4 549 9 549 5 0 30
21 55 46 l45 47 503 -296 c277 -162 595 -349 707 -415 l203 -119 332 192 c182
106 513 299 736 428 l405 236 3 1445 c1 795 -1 1446 -4 1446 -3 0 -165 -95
-360 -210 -195 -116 -360 -213 -367 -216 -7 -2 -191 95 -408 217 -217 122
-400 224 -406 226 -10 4 -13 -87 -13 -433z m198 146 l62 -35 0 -83 c0 -46 -3
-82 -7 -80 -5 2 -36 19 -70 38 l-63 35 0 83 c0 46 3 82 8 80 4 -1 35 -19 70
-38z m220 -120 l62 -35 0 -83 c0 -46 -3 -82 -7 -80 -5 2 -36 19 -70 38 l-63
35 0 83 c0 46 3 82 8 80 4 -1 35 -19 70 -38z m220 -120 l62 -35 0 -83 c0 -46
-3 -82 -7 -80 -5 2 -36 19 -70 38 l-63 35 0 83 c0 46 3 82 8 80 4 -1 35 -19
70 -38z m-440 -20 l62 -35 0 -83 c0 -46 -3 -82 -7 -80 -5 2 -36 19 -70 38
l-63 35 0 83 c0 46 3 82 8 80 4 -1 35 -19 70 -38z m220 -140 l62 -35 0 -83 c0
-46 -3 -82 -7 -80 -5 2 -36 19 -70 38 l-63 35 0 83 c0 46 3 82 8 80 4 -1 35
-19 70 -38z m220 -120 l62 -35 0 -83 c0 -46 -3 -82 -7 -80 -5 2 -36 19 -70 38
l-63 35 0 83 c0 46 3 82 8 80 4 -1 35 -19 70 -38z m-440 -20 l62 -35 0 -83 c0
-46 -3 -82 -7 -80 -5 2 -36 19 -70 38 l-63 35 0 83 c0 46 3 82 8 80 4 -1 35
-19 70 -38z m220 -140 l62 -35 0 -83 c0 -46 -3 -82 -7 -80 -5 2 -36 19 -70 38
l-63 35 0 83 c0 46 3 82 8 80 4 -1 35 -19 70 -38z m-220 -120 l62 -35 0 -83
c0 -46 -3 -82 -7 -80 -5 2 -36 19 -70 38 l-63 35 0 83 c0 46 3 82 8 80 4 -1
35 -19 70 -38z m440 0 l62 -35 0 -83 c0 -46 -3 -82 -7 -80 -5 2 -36 19 -70 38
l-63 35 0 83 c0 46 3 82 8 80 4 -1 35 -19 70 -38z m-1960 -20 l62 -35 0 -83
c0 -46 -3 -82 -7 -80 -5 2 -36 19 -70 38 l-63 35 0 83 c0 46 3 82 8 80 4 -1
35 -19 70 -38z m220 -120 l62 -35 0 -83 c0 -46 -3 -82 -7 -80 -5 2 -36 19 -70
38 l-63 35 0 83 c0 46 3 82 8 80 4 -1 35 -19 70 -38z m1520 0 l62 -35 0 -83
c0 -46 -3 -82 -7 -80 -5 2 -36 19 -70 38 l-63 35 0 83 c0 46 3 82 8 80 4 -1
35 -19 70 -38z m-1300 -120 l62 -35 0 -83 c0 -46 -3 -82 -7 -80 -5 2 -36 19
-70 38 l-63 35 0 83 c0 46 3 82 8 80 4 -1 35 -19 70 -38z m1520 0 l62 -35 0
-83 c0 -46 -3 -82 -7 -80 -5 2 -36 19 -70 38 l-63 35 0 83 c0 46 3 82 8 80 4
-1 35 -19 70 -38z m-1960 -20 l62 -35 0 -83 c0 -46 -3 -82 -7 -80 -5 2 -36 19
-70 38 l-63 35 0 83 c0 46 3 82 8 80 4 -1 35 -19 70 -38z m220 -140 l62 -35 0
-83 c0 -46 -3 -82 -7 -80 -5 2 -36 19 -70 38 l-63 35 0 83 c0 46 3 82 8 80 4
-1 35 -19 70 -38z m220 -120 l62 -35 0 -83 c0 -46 -3 -82 -7 -80 -5 2 -36 19
-70 38 l-63 35 0 83 c0 46 3 82 8 80 4 -1 35 -19 70 -38z m-440 -20 l62 -35 0
-83 c0 -46 -3 -82 -7 -80 -5 2 -36 19 -70 38 l-63 35 0 83 c0 46 3 82 8 80 4
-1 35 -19 70 -38z m220 -140 l62 -35 0 -83 c0 -46 -3 -82 -7 -80 -5 2 -36 19
-70 38 l-63 35 0 83 c0 46 3 82 8 80 4 -1 35 -19 70 -38z m1520 -190 c301
-169 398 -228 389 -236 -15 -14 -722 -414 -732 -414 -4 0 -26 13 -49 28 -22
15 -197 117 -388 227 -192 110 -348 202 -348 205 0 9 704 419 716 417 5 -1
191 -103 412 -227z m-1300 70 l62 -35 0 -83 c0 -46 -3 -82 -7 -80 -5 2 -36 19
-70 38 l-63 35 0 83 c0 46 3 82 8 80 4 -1 35 -19 70 -38z m320 -500 l62 -35 0
-83 c0 -46 -3 -82 -7 -80 -5 2 -36 19 -70 38 l-63 35 0 83 c0 46 3 82 8 80 4
-1 35 -19 70 -38z m220 -120 l62 -35 0 -83 c0 -46 -3 -82 -7 -80 -5 2 -36 19
-70 38 l-63 35 0 83 c0 46 3 82 8 80 4 -1 35 -19 70 -38z m220 -120 l62 -35 0
-83 c0 -46 -3 -82 -7 -80 -5 2 -36 19 -70 38 l-63 35 0 83 c0 46 3 82 8 80 4
-1 35 -19 70 -38z m-440 -20 l62 -35 0 -83 c0 -46 -3 -82 -7 -80 -5 2 -36 19
-70 38 l-63 35 0 83 c0 46 3 82 8 80 4 -1 35 -19 70 -38z m220 -140 l62 -35 0
-83 c0 -46 -3 -82 -7 -80 -5 2 -36 19 -70 38 l-63 35 0 83 c0 46 3 82 8 80 4
-1 35 -19 70 -38z m220 -120 l62 -35 0 -83 c0 -46 -3 -82 -7 -80 -5 2 -36 19
-70 38 l-63 35 0 83 c0 46 3 82 8 80 4 -1 35 -19 70 -38z"/>
<path d="M841 3998 c0 -99 4 -155 9 -143 65 154 120 291 120 297 0 4 -29 8
-65 8 l-65 0 1 -162z"/>
<path d="M2180 3716 l0 -294 151 -81 151 -81 137 78 136 78 3 297 c1 163 0
297 -4 297 -3 0 -65 -34 -138 -75 -73 -41 -135 -75 -138 -75 -4 0 -69 34 -146
75 -77 41 -143 75 -146 75 -3 0 -6 -132 -6 -294z"/>
<path d="M1155 1914 c-82 -52 -152 -94 -155 -94 -3 0 -30 38 -60 85 -30 47
-58 85 -63 85 -16 0 -167 -106 -164 -116 4 -18 201 -303 210 -304 12 0 476
260 483 271 6 11 -77 161 -91 165 -5 1 -77 -40 -160 -92z"/>
<path d="M909 638 c-227 -259 -228 -248 13 -106 97 57 129 82 187 148 l71 80
-27 55 c-15 30 -30 55 -34 55 -3 0 -98 -105 -210 -232z"/>
</g>
</svg>
