<svg id="visual" viewBox="0 0 900 600" width="900" height="600" xmlns="http://www.w3.org/2000/svg" xmlns:xlink="http://www.w3.org/1999/xlink" version="1.1"><rect width="900" height="600" fill="#FFF"></rect><g><g transform="translate(528 158)"><path d="M0 -77.2L66.9 -38.6L66.9 38.6L0 77.2L-66.9 38.6L-66.9 -38.6Z" stroke="#297EA6" fill="none" stroke-width="2"></path></g><g transform="translate(786 88)"><path d="M0 -71L61.5 -35.5L61.5 35.5L0 71L-61.5 35.5L-61.5 -35.5Z" stroke="#297EA6" fill="none" stroke-width="2"></path></g><g transform="translate(334 262)"><path d="M0 -45L39 -22.5L39 22.5L0 45L-39 22.5L-39 -22.5Z" stroke="#297EA6" fill="none" stroke-width="2"></path></g><g transform="translate(673 218)"><path d="M0 -57L49.4 -28.5L49.4 28.5L0 57L-49.4 28.5L-49.4 -28.5Z" stroke="#297EA6" fill="none" stroke-width="2"></path></g><g transform="translate(116 402)"><path d="M0 -52L45 -26L45 26L0 52L-45 26L-45 -26Z" stroke="#297EA6" fill="none" stroke-width="2"></path></g><g transform="translate(625 431)"><path d="M0 -67L58 -33.5L58 33.5L0 67L-58 33.5L-58 -33.5Z" stroke="#297EA6" fill="none" stroke-width="2"></path></g><g transform="translate(379 413)"><path d="M0 -75L65 -37.5L65 37.5L0 75L-65 37.5L-65 -37.5Z" stroke="#297EA6" fill="none" stroke-width="2"></path></g><g transform="translate(798 487)"><path d="M0 -60L52 -30L52 30L0 60L-52 30L-52 -30Z" stroke="#297EA6" fill="none" stroke-width="2"></path></g></g></svg>