<svg id="visual" viewBox="0 0 900 600" width="900" height="600" xmlns="http://www.w3.org/2000/svg" xmlns:xlink="http://www.w3.org/1999/xlink" version="1.1"><rect x="0" y="0" width="900" height="600" fill="#0D1B2A"></rect><defs><linearGradient id="grad1_0" x1="33.3%" y1="0%" x2="100%" y2="100%"><stop offset="20%" stop-color="#0d1b2a" stop-opacity="1"></stop><stop offset="80%" stop-color="#0d1b2a" stop-opacity="1"></stop></linearGradient></defs><defs><linearGradient id="grad2_0" x1="0%" y1="0%" x2="66.7%" y2="100%"><stop offset="20%" stop-color="#0d1b2a" stop-opacity="1"></stop><stop offset="80%" stop-color="#0d1b2a" stop-opacity="1"></stop></linearGradient></defs><g transform="translate(900, 0)"><path d="M0 486.7C-44.4 438.7 -88.7 390.6 -155.8 376C-222.8 361.4 -312.4 380.2 -344.2 344.2C-376 308.2 -349.9 217.3 -364 150.8C-378.1 84.3 -432.4 42.1 -486.7 0L0 0Z" fill="#FBAE3C"></path></g><g transform="translate(0, 600)"><path d="M0 -486.7C66.5 -483 132.9 -479.3 186.3 -449.7C239.6 -420.1 279.9 -364.7 314.7 -314.7C349.4 -264.6 378.7 -219.9 406.5 -168.4C434.3 -116.8 460.5 -58.4 486.7 0L0 0Z" fill="#FBAE3C"></path></g></svg>